<?xml version="1.0" encoding="utf-8"?>
<svg viewBox="0 0 500 500" xmlns="http://www.w3.org/2000/svg">
  <defs/>
  <g transform="matrix(1.235293, 0, 0, 1.264334, 54.987277, -54.745993)" style="">
    <polygon class="st0" points="28.1,385.8 1,82.1 298.4,82.1 271.4,385.7 149.5,419.5 &#9;" style="fill: rgb(228, 162, 39);"/>
    <polygon class="st1" points="149.5,393.3 247.9,366 271.1,106.6 149.5,106.6 &#9;" style="fill: rgb(240, 191, 38);"/>
    <polygon class="st4" points="149.4,315.9 149.3,316 107.8,304.8 105.1,275.1 85,275.1 67.8,275.1 73,333.5 149.2,354.7&#10;&#9;&#9;149.4,354.7 &#9;" style="fill: rgb(235, 235, 235);"/>
    <polygon class="st4" points="154.4,256.4 154.4,219.2 108.6,219.2 114,160.8 154.5,159.7 154.4,121 80.3,121 77.5,148.4&#10;&#9;&#9;68.8,246.4 67.9,256.4 77.9,256.4 &#9;" style="fill: rgb(235, 235, 235);"/>
    <polygon class="st5" points="154.2,159.7 154.3,159.7 195,162.1 198.5,200.6 218.6,200.6 235.8,200.6 229.3,128.6 154.4,120.9&#10;&#9;&#9;154.2,121 &#9;" style="fill: rgb(255, 255, 255);"/>
    <polyline class="st5" points="232,159.8 228.8,121 150.2,121 150.2,145.1 150.2,159.7 150.2,159.8 232,159.8 &#9;" style="fill: rgb(255, 255, 255);"/>
    <polygon class="st5" points="149.3,219.2 149.3,256.5 195.1,256.5 190.8,304.7 149.3,316 149.3,354.7 225.6,333.5 226.2,327.3&#10;&#9;&#9;234.9,229.2 235.8,219.2 225.8,219.2 &#9;" style="fill: rgb(255, 255, 255);"/>
    <path class="st5" d="M227.2,158.2" style="fill: rgb(255, 255, 255);"/>
  </g>
</svg>