<?xml version="1.0" encoding="utf-8"?>
<svg viewBox="0 0 500 500" xmlns="http://www.w3.org/2000/svg">
  <defs>
    <linearGradient id="a" x1="19.075" y1="18.782" x2="34.898" y2="34.658" gradientUnits="userSpaceOnUse" gradientTransform="matrix(12.126723, 0, 0, 12.465362, -149.168926, -143.723417)">
      <stop stop-color="#387EB8"/>
      <stop offset="1" stop-color="#366994"/>
    </linearGradient>
    <linearGradient id="b" x1="28.809" y1="28.882" x2="45.803" y2="45.163" gradientUnits="userSpaceOnUse" gradientTransform="matrix(12.126723, 0, 0, 12.465362, -149.168926, -143.723417)">
      <stop stop-color="#FFE052"/>
      <stop offset="1" stop-color="#FFC331"/>
    </linearGradient>
  </defs>
  <path d="M 237.487 55.711 C 138.969 55.711 145.117 99.627 145.117 99.627 L 145.239 145.125 L 239.245 145.125 L 239.245 158.775 L 107.876 158.775 C 107.876 158.775 44.854 151.42 44.854 253.611 C 44.854 355.777 99.873 352.162 99.873 352.162 L 132.712 352.162 L 132.712 304.744 C 132.712 304.744 130.942 248.189 186.858 248.189 L 280.088 248.189 C 280.088 248.189 332.476 249.061 332.476 196.146 L 332.476 108.651 C 332.476 108.651 340.431 55.711 237.487 55.711 Z M 185.645 86.301 C 194.995 86.301 202.563 94.08 202.563 103.69 C 202.563 113.301 194.995 121.08 185.645 121.08 C 176.307 121.104 168.716 113.301 168.729 103.69 C 168.729 94.08 176.296 86.301 185.645 86.301 Z" fill="url(#a)" style=""/>
  <path d="M 240.276 452.52 C 338.794 452.52 332.646 408.606 332.646 408.606 L 332.525 363.107 L 238.518 363.107 L 238.518 349.458 L 369.874 349.458 C 369.874 349.458 432.909 356.811 432.909 254.633 C 432.909 152.454 377.89 156.082 377.89 156.082 L 345.051 156.082 L 345.051 203.488 C 345.051 203.488 346.822 260.044 290.905 260.044 L 197.675 260.044 C 197.675 260.044 145.287 259.17 145.287 312.086 L 145.287 399.581 C 145.287 399.581 137.332 452.52 240.276 452.52 Z M 292.118 421.931 C 282.78 421.955 275.189 414.153 275.201 404.542 C 275.201 394.943 282.769 387.165 292.118 387.165 C 301.467 387.165 309.034 394.931 309.034 404.542 C 309.034 414.165 301.467 421.931 292.118 421.931 Z" fill="url(#b)" style=""/>
</svg>